# xmcd
#
# Track frame offsets: 
#        150
#        20640
#        42272
#        61925
#        77597
#        102817
#        117232
#        129360
#        148215
#        168535
#        181592
#        202822
#
# Disc length: 2934 seconds
#
# Revision: 3
# Processed by: cddbd v1.5.2PL0 Copyright (c) Steve Scherf et al.
# Submitted via: ExactAudioCopy v1.0b3
#
DISCID=990b740c
DTITLE=Foley, Sue - Love Comin' Down
DYEAR=2000
DGENRE=Electric Blues
TTITLE0=Two Trains
TTITLE1=Empty Cup
TTITLE2=Love Comin' Down
TTITLE3=You're Barkin' Up The Wrong Tree
TTITLE4=Same Thing
TTITLE5=Let My Tears Fall Down
TTITLE6=Let Me Drive
TTITLE7=To Be Next To You
TTITLE8=Mediterranean Breakfast
TTITLE9=Am I Worthy
TTITLE10=Oh Baby (We Got A Good Thing Goin')
TTITLE11=How Strong
EXTD=
EXTT0=
EXTT1=
EXTT2=
EXTT3=
EXTT4=
EXTT5=
EXTT6=
EXTT7=
EXTT8=
EXTT9=
EXTT10=
EXTT11=
PLAYORDER=
